<svg viewBox="0 0 370 233"><polygon class="cls-1" points="159.15 28.16 151.45 35.89 151.48 59.59 147.43 63.66 130.44 63.68 126.27 67.87 88.91 67.91 82.74 74.11 82.75 84.07 73.66 93.19 73.69 117.98 82.59 126.87 82.63 158.45 74.95 166.15 48.08 166.18 48 166.25 39.02 175.27 39.38 175.63 48.29 166.69 75.17 166.66 83.13 158.66 83.1 126.66 74.2 117.77 74.17 93.4 83.26 84.28 83.25 74.32 89.13 68.42 126.48 68.38 130.66 64.19 147.64 64.17 151.99 59.8 151.96 36.1 159.51 28.52 159.15 28.16"/><polygon class="cls-2" points="245.82 53.63 217.46 53.67 206.69 64.48 177.28 64.51 172.18 59.42 151.73 59.44 151.74 59.95 171.97 59.93 177.07 65.02 206.9 64.99 217.67 54.17 245.62 54.14 249.72 58.25 250.08 57.89 245.82 53.63"/><polygon class="cls-3" points="258.43 63.86 223.05 63.9 215.58 71.39 176.71 71.44 170.91 66.49 157.43 66.5 157.35 66.58 147.44 76.52 102.67 76.57 81.89 97.42 81.92 114.4 89.31 121.78 89.35 159.66 73.91 175.15 71.05 175.16 71.05 175.67 74.12 175.66 74.19 175.59 89.86 159.87 89.81 121.57 82.42 114.19 82.4 97.63 102.88 77.08 147.65 77.03 147.73 76.95 157.63 67.01 170.72 67 176.53 71.95 215.79 71.9 223.26 64.4 258.43 64.36 258.43 63.86"/><polygon class="cls-4" points="243.31 71.52 227.3 71.54 221.52 77.34 172.57 77.4 164.59 85.4 107.34 85.47 91.07 101.8 91.08 112.84 100.44 122.19 100.49 163.65 78.15 186.06 35.82 186.11 14.92 165.23 14.56 165.59 35.61 186.62 78.36 186.57 101 163.86 100.95 121.98 100.87 121.9 91.58 112.63 91.57 102.01 107.55 85.98 164.81 85.91 172.78 77.91 221.73 77.85 227.51 72.05 243.1 72.03 256.86 85.78 257.22 85.42 243.31 71.52"/><polygon class="cls-5" points="238.95 79.09 228.3 89.78 110.09 89.91 103.05 96.97 103.06 98.42 93.94 106.72 93.94 111.18 94.01 111.25 113.39 131.07 113.44 177.8 105.24 186.03 90.95 186.05 90.95 186.56 105.45 186.54 113.95 178.01 113.9 130.87 113.82 130.79 94.45 110.97 94.44 106.95 103.56 98.64 103.56 97.18 110.3 90.42 228.51 90.28 239.31 79.45 238.95 79.09"/><polygon class="cls-6" points="244.85 85.47 244.34 85.47 244.36 96.92 239.05 102.25 208.14 102.28 198.89 93.04 187.48 93.05 181.33 99.23 154.07 99.26 148.94 94.13 114.36 94.17 106.78 101.78 106.78 110.22 123.23 127.5 123.29 182.98 107.72 198.6 108.08 198.96 123.8 183.19 123.73 127.29 107.29 110.02 107.28 101.99 114.57 94.68 148.73 94.64 153.87 99.77 181.54 99.74 187.69 93.56 198.68 93.55 207.93 102.79 239.26 102.75 244.87 97.13 244.85 85.47"/><polygon class="cls-7" points="145.28 100.02 127.66 100.04 127.67 104.41 123.14 108.95 123.15 119.7 129.01 125.55 129.1 209.32 135.82 216.03 136.18 215.67 129.61 209.11 129.51 125.34 123.66 119.48 123.65 109.17 128.17 104.62 128.17 100.55 145.07 100.53 152.42 107.87 239.06 107.77 255.5 124.19 255.56 177.18 251.44 181.31 251.8 181.67 256.07 177.39 256 123.98 255.93 123.91 239.27 107.26 152.63 107.36 145.28 100.02"/><polygon class="cls-8" points="137.39 105.12 133.89 105.12 133.9 105.63 137.18 105.63 139.29 107.73 139.29 112.61 137.33 114.58 133.83 114.59 128.94 117.74 128.78 119.82 135.07 126.11 135.09 139.95 140.46 145.31 140.51 189.1 147.44 196.03 244.62 195.92 261.37 212.65 274.72 212.64 292.34 230.23 322.64 230.19 333.73 219.07 356.21 219.05 363.8 211.43 363.44 211.07 356 218.54 333.51 218.56 322.43 229.69 292.55 229.72 274.93 212.13 261.58 212.14 244.83 195.41 147.65 195.52 141.01 188.89 140.96 145.1 135.59 139.74 135.58 125.9 129.3 119.63 129.43 118.03 133.98 115.09 137.54 115.09 139.8 112.82 139.79 107.53 137.39 105.12"/><polygon class="cls-9" points="134.65 117.63 134.29 117.99 141 124.69 141.02 138.53 147.23 144.74 147.28 186.34 150.78 189.84 248.17 189.73 265.1 206.65 278.1 206.63 294.9 223.41 320.66 223.38 332.43 211.57 355.63 211.54 362.3 204.85 361.94 204.5 355.43 211.03 332.22 211.06 320.45 222.88 295.11 222.9 278.31 206.12 265.31 206.14 248.38 189.22 150.99 189.34 147.79 186.13 147.74 144.53 141.52 138.32 141.51 124.47 134.65 117.63"/><polygon class="cls-10" points="240.56 202.16 159.39 202.25 153.37 208.3 153.73 208.66 159.6 202.76 240.35 202.67 246.65 208.96 247 208.6 240.56 202.16"/><polygon class="cls-11" points="71.17 189.11 64.36 189.12 64.36 189.63 70.96 189.62 76.57 195.22 81.47 195.22 84.15 197.9 84.16 204.63 64.21 226.78 64.59 227.12 84.67 204.83 84.66 197.68 81.68 194.71 76.78 194.72 71.17 189.11"/><polygon class="cls-12" points="110.29 36.75 109.78 36.75 109.79 42.15 97.39 54.59 83 54.6 61.43 76.25 61.48 117.23 54.86 123.86 41.14 123.88 41.14 124.39 55.08 124.37 61.98 117.44 61.94 76.46 83.21 55.11 97.61 55.09 110.29 42.36 110.29 36.75"/><polygon class="cls-13" points="105.65 33.65 105.14 33.65 105.15 41.19 99.1 47.27 78.5 47.29 78.43 47.37 54 71.89 54.03 99.05 41.02 112.1 23.62 112.12 11.72 124.06 11.73 129.54 11.8 129.61 28.93 146.72 46.99 146.7 49.74 149.45 50.1 149.09 47.2 146.19 29.14 146.21 12.23 129.33 12.23 124.27 23.83 112.63 41.23 112.61 54.53 99.26 54.5 72.1 78.72 47.8 99.31 47.77 105.66 41.4 105.65 33.65"/><polygon class="cls-14" points="36.45 76.15 24.76 87.88 24.78 106.07 25.29 106.07 25.27 88.09 36.81 76.51 36.45 76.15"/><polygon class="cls-15" points="25.03 95.92 11.84 95.94 2.16 105.66 2.17 112.31 2.67 112.31 2.67 105.86 12.05 96.45 25.03 96.43 25.03 95.92"/><polygon class="cls-16" points="21.9 101.1 12.99 101.11 8.77 105.34 9.13 105.7 13.2 101.62 21.39 101.61 21.4 109.74 21.91 109.74 21.9 101.1"/><polygon class="cls-17" points="150.23 25.99 128.68 26.02 128.69 36.98 134.13 36.97 134.13 41.99 125.19 42 106.88 60.38 86.26 60.4 67.36 79.36 67.45 158.4 75.68 158.39 75.68 157.88 67.96 157.89 67.87 79.57 86.47 60.91 107.09 60.88 107.16 60.81 125.4 42.51 134.64 42.49 134.63 36.46 129.2 36.47 129.19 26.52 150.24 26.5 150.23 25.99"/><polygon class="cls-18" points="144.3 47.73 143.8 47.73 143.81 56.37 131.68 56.39 126.47 61.62 119.23 61.63 119.23 62.14 126.68 62.13 131.89 56.9 144.31 56.88 144.3 47.73"/><polygon class="cls-19" points="30.74 120.16 25.67 125.25 25.68 126.79 30.79 131.02 52.84 131 58.5 136.65 58.52 159.81 44.96 159.82 39.28 154.14 22.06 154.16 14.9 147.01 14.54 147.37 21.85 154.67 39.07 154.65 44.75 160.33 59.03 160.31 59.01 136.44 53.05 130.49 30.97 130.51 26.18 126.55 26.18 125.45 31.1 120.52 30.74 120.16"/><polygon class="cls-20" points="95.1 50 83.35 50.02 78.91 54.47 76.1 54.48 56.93 73.72 56.96 101.99 42.58 116.42 25.4 116.44 15.77 126.1 15.78 128.62 30.79 143.61 47.16 143.59 47.16 143.08 31 143.1 16.28 128.4 16.28 126.31 25.61 116.95 42.79 116.93 57.47 102.2 57.44 73.93 76.31 54.98 79.12 54.98 83.56 50.52 95.09 50.51 95.1 50"/><polygon class="cls-21" points="185.2 28.31 184.69 28.31 184.7 35.35 207 57.63 207.36 57.27 185.21 35.14 185.2 28.31"/><polygon class="cls-22" points="193.08 13.2 192.57 13.2 192.59 23.76 197.45 28.62 197.46 36.75 209.08 48.36 251.39 48.31 256.23 43.45 255.87 43.09 251.18 47.8 209.29 47.85 197.97 36.54 197.96 28.41 193.09 23.55 193.08 13.2"/><polygon class="cls-23" points="174.8 42.17 159.09 42.19 159.1 51.67 159.61 51.66 159.6 42.7 174.59 42.68 182.33 50.41 199.86 50.39 199.86 49.88 182.54 49.9 174.8 42.17"/><polygon class="cls-24" points="154.78 118.44 154.42 118.8 164.78 129.15 164.82 158.03 165.32 158.03 165.29 128.94 154.78 118.44"/><polygon class="cls-25" points="254.02 1.87 246.14 1.88 246.14 2.38 253.81 2.38 267.07 15.62 267.09 29.11 248.76 29.13 233.39 44.55 210.22 44.57 210.22 45.08 233.6 45.05 248.97 29.64 267.6 29.61 267.58 15.41 254.02 1.87"/><polygon class="cls-26" points="233.94 118.03 206.99 118.06 207.01 128.99 207.51 128.99 207.5 118.57 233.74 118.54 248.01 132.8 248.06 174.08 237.96 174.09 229.88 182.2 177.34 182.26 154.9 159.84 154.89 149.15 154.38 149.15 154.39 160.05 177.13 182.77 230.09 182.71 238.17 174.6 248.57 174.59 248.52 132.59 233.94 118.03"/><polygon class="cls-27" points="169.83 115.77 169.47 116.13 189.49 136.12 207.23 136.1 214.79 128.51 233.94 128.49 243.79 138.33 243.82 162.17 238.83 167.18 232.47 167.19 227.05 172.63 187.56 172.68 179.84 164.97 170.15 164.98 170.15 165.49 179.63 165.48 187.35 173.19 227.26 173.14 232.69 167.7 239.04 167.69 244.33 162.38 244.3 138.12 244.22 138.05 234.14 127.98 214.58 128 207.02 135.59 189.7 135.62 169.83 115.77"/><polygon class="cls-28" points="234.68 139.07 224.47 149.31 184.16 149.35 175.71 157.84 176.07 158.2 184.38 149.86 224.69 149.81 235.03 139.43 234.68 139.07"/><polygon class="cls-29" points="205.63 149.58 205.12 149.58 205.13 163.75 224.7 163.73 233.38 155.02 233.02 154.66 224.49 163.22 205.64 163.24 205.63 149.58"/><polygon class="cls-30" points="264.39 5.59 264.03 5.95 271.3 13.22 271.33 36.31 263.68 36.31 263.69 46.88 271.56 54.75 271.58 65.9 259.86 77.66 259.99 193.16 267.44 200.59 284.43 200.57 299.9 216.03 318.86 216.01 329.45 205.38 352.77 205.35 359.43 198.67 359.07 198.31 352.56 204.84 329.24 204.87 318.65 215.5 300.11 215.52 284.64 200.07 267.64 200.09 260.5 192.95 260.37 77.87 272.09 66.11 272.07 54.54 264.2 46.67 264.19 36.82 271.84 36.81 271.81 13 264.39 5.59"/><polygon class="cls-31" points="41.23 197.14 35.2 197.15 29.81 202.56 29.82 210.04 36.69 216.9 65.06 216.87 75.91 205.97 75.55 205.61 64.85 216.36 36.9 216.39 30.32 209.83 30.32 202.76 35.41 197.65 41.23 197.65 41.23 197.14"/><polygon class="cls-32" points="357.32 79.49 356.96 79.85 363.53 86.41 363.62 170.18 369.48 176.03 369.49 186.35 364.97 190.9 364.97 194.97 348.07 194.99 340.72 187.65 282.02 187.72 265.58 171.29 265.52 118.31 269.63 114.18 269.28 113.82 265.01 118.1 265.07 171.5 281.81 188.23 340.51 188.16 347.86 195.5 365.48 195.48 365.47 191.1 370 186.56 369.99 175.82 364.13 169.97 364.04 86.2 357.32 79.49"/><polygon class="cls-33" points="271.31 1.92 270.95 2.28 281.19 12.51 302.99 12.49 310.46 4.99 329.01 4.96 337.21 13.15 348.07 13.14 362.11 27.16 362.16 73.21 354.49 73.22 348.35 79.39 348.36 88 355.81 95.44 355.9 170.43 363.95 178.47 363.96 182.34 285.41 182.43 271.02 168.06 270.97 123.97 279.27 115.64 279.26 105.1 273.19 99.04 265.49 99.05 265.48 82.16 276.07 71.52 275.71 71.17 264.97 81.95 264.99 99.56 272.98 99.55 278.75 105.31 278.76 115.43 270.46 123.76 270.51 168.27 270.59 168.34 285.2 182.94 364.46 182.85 364.46 178.26 356.4 170.21 356.32 95.23 348.86 87.79 348.85 79.6 354.7 73.73 362.67 73.72 362.61 26.95 348.28 12.63 337.42 12.64 329.22 4.46 310.25 4.48 302.78 11.98 281.4 12 271.31 1.92"/><polygon class="cls-34" points="306.46 57.05 301.96 61.57 301.99 88.36 309.03 95.4 339.03 95.36 339.04 104.93 333.79 110.19 324.22 110.21 317.36 117.09 299.98 117.11 293.37 110.51 279.01 110.52 279.01 111.03 293.16 111.02 299.77 117.62 317.57 117.6 324.43 110.71 334 110.7 339.55 105.14 339.53 94.85 309.24 94.89 302.49 88.15 302.46 61.78 306.82 57.41 306.46 57.05"/><polygon class="cls-35" points="350.65 23.83 343 23.84 338.96 27.89 339.32 28.25 343.21 24.35 350.44 24.34 356.69 30.58 356.73 68.63 352.86 68.63 343.62 77.9 343.63 91.54 350.55 98.45 350.63 172.06 345.16 177.56 288.3 177.63 276.8 166.13 276.75 126.66 283.57 119.8 283.22 119.45 276.24 126.44 276.29 166.34 288.09 178.13 345.37 178.07 351.14 172.27 351.06 98.24 344.14 91.33 344.13 78.11 353.07 69.14 357.24 69.13 357.2 30.37 350.65 23.83"/><polygon class="cls-36" points="268.2 43.92 267.84 44.28 276.33 52.76 276.34 64.02 280.34 68.02 280.35 74.39 269.44 85.34 269.45 92.07 284.12 106.73 330.47 106.67 334.07 103.06 333.71 102.7 330.26 106.17 284.33 106.22 269.95 91.86 269.95 85.55 280.86 74.59 280.85 67.81 276.85 63.81 276.84 52.55 268.2 43.92"/><polygon class="cls-37" points="336.18 23.09 324.96 34.35 300.04 34.38 289.9 44.55 290.26 44.91 300.25 34.89 325.17 34.86 336.54 23.45 336.18 23.09"/><polygon class="cls-38" points="332.77 32.94 326.37 39.35 313.68 39.37 313.7 58.43 307.63 64.51 307.66 85.5 313.1 90.94 313.46 90.58 308.17 85.29 308.14 64.72 314.21 58.64 314.19 39.87 326.58 39.86 333.12 33.29 332.77 32.94"/><polygon class="cls-39" points="321.76 12.65 312.94 12.66 307.73 17.9 277.64 17.93 277.64 18.44 307.94 18.41 313.16 13.17 321.55 13.16 326.14 17.75 345.64 17.73 345.64 17.22 326.35 17.24 321.76 12.65"/><polygon class="cls-40" points="315.15 18.71 311.54 22.33 280.77 22.36 275.05 28.1 275.07 43.98 282.08 50.98 289.4 50.98 301.02 39.32 305.77 39.31 309.32 42.85 309.33 53.78 304.03 53.78 295.99 61.86 296.02 91.52 304.15 99.64 324.04 99.62 327.22 102.79 327.58 102.43 324.25 99.11 304.36 99.13 296.53 91.31 296.5 62.07 304.25 54.29 309.84 54.29 309.82 42.64 305.98 38.81 300.81 38.81 289.19 50.47 282.29 50.48 275.58 43.77 275.56 28.31 280.98 22.87 311.75 22.84 315.51 19.06 315.15 18.71"/><polygon class="cls-41" points="348.45 36.47 347.94 36.47 347.96 47.27 320.19 75.13 320.2 85.38 320.71 85.38 320.7 75.34 348.46 47.48 348.45 36.47"/><polygon class="cls-42" points="331.56 44.07 325.46 44.08 320.16 49.4 320.18 61 334.9 60.99 334.9 60.48 320.68 60.49 320.67 49.6 325.67 44.59 331.56 44.58 331.56 44.07"/><polygon class="cls-43" points="343.88 85.1 334.82 85.11 330.98 88.97 331.34 89.33 335.03 85.62 343.88 85.61 343.88 85.1"/><polygon class="cls-44" points="343.73 108.49 329.9 122.36 295.5 122.4 291.44 118.34 288.3 118.34 279.54 127.13 279.58 163.52 279.66 163.59 290.46 174.38 306.99 174.36 311.81 169.52 329.42 169.5 334.59 174.67 342.75 174.66 347.15 170.25 347.1 127.73 346.6 127.73 346.64 170.03 342.54 174.15 334.8 174.16 329.62 168.99 311.6 169.01 306.78 173.85 290.67 173.87 280.09 163.31 280.05 127.34 288.51 118.85 291.23 118.85 295.29 122.91 330.12 122.87 344.09 108.84 343.73 108.49"/><polygon class="cls-45" points="320.08 128.06 314.61 133.54 297.94 133.56 292.44 139.08 292.46 155.73 290.42 157.78 290.42 160.86 293.15 163.58 293.5 163.22 290.93 160.64 290.93 157.99 292.97 155.94 292.95 139.29 298.15 134.07 314.82 134.05 320.06 128.79 321.52 130.4 321.52 132.83 318.8 135.57 302.29 135.59 300.48 137.41 300.48 139.58 303.14 142.24 322.4 142.21 332.4 152.2 343.7 152.19 343.72 166.2 340.24 169.69 337.72 169.69 333.32 165.3 323.73 165.31 320.2 161.79 319.84 162.15 323.52 165.82 333.12 165.81 337.51 170.2 340.45 170.2 344.23 166.41 344.21 151.68 332.61 151.69 322.61 141.7 303.35 141.73 300.99 139.37 300.99 137.62 302.5 136.1 319 136.08 322.03 133.04 322.03 130.21 320.08 128.06"/><polygon class="cls-46" points="347.94 112.34 340.85 119.45 340.87 127.89 337.46 131.3 327.01 131.31 327.02 140.41 334.25 147.63 334.61 147.27 327.52 140.2 327.51 131.82 337.68 131.81 341.37 128.1 341.36 119.66 348.3 112.7 347.94 112.34"/><polygon class="cls-47" points="301.55 146.18 299.23 146.18 299.23 146.69 301.34 146.69 303.39 148.74 305.9 148.74 311.08 153.91 311.09 159.88 307.41 163.56 305.19 163.57 298.83 169.95 299.19 170.31 305.4 164.08 307.62 164.07 311.59 160.09 311.59 153.7 306.11 148.23 303.6 148.23 301.55 146.18"/><polygon class="cls-48" points="268.37 179.31 265.08 182.61 265.09 188.01 265.6 188.01 265.59 182.81 268.37 180.03 281.12 192.76 337.67 192.7 344.6 199.63 351.21 199.62 351.21 199.11 344.81 199.12 337.88 192.19 281.33 192.26 268.37 179.31"/><polygon class="cls-49" points="288.18 196.84 287.82 197.2 301.37 210.74 316.98 210.72 327.05 200.62 334.49 200.61 334.49 200.1 326.84 200.11 316.77 210.22 301.58 210.23 288.18 196.84"/><polygon class="cls-50" points="101.01 191.69 92.79 199.94 92.81 214.31 100.79 222.28 110.14 222.26 117.97 230.09 159.67 230.04 167.58 222.1 178.16 222.09 183.35 227.28 191.28 227.27 196.09 232.07 246.51 232.02 261.14 217.33 272.54 217.32 286.4 231.16 286.76 230.8 272.75 216.81 260.93 216.82 246.3 231.51 196.3 231.57 191.49 226.76 183.56 226.77 178.37 221.58 167.37 221.59 159.46 229.53 118.18 229.58 110.35 221.76 101 221.77 93.31 214.09 93.3 200.15 101.37 192.05 101.01 191.69"/><polygon class="cls-51" points="9.68 108.76 1.75 116.72 1.75 124.24 11.04 133.51 11.05 140.5 0 151.59 0.03 174.87 22.87 197.69 22.88 206.47 17.9 211.48 17.91 219.16 30.89 232.13 67.14 232.09 67.21 232.02 81.01 218.17 87.97 218.16 95.19 225.37 105.62 225.36 105.62 224.85 95.4 224.87 88.18 217.66 80.8 217.66 80.72 217.74 66.93 231.58 31.1 231.62 18.41 218.95 18.41 211.69 23.39 206.69 23.38 197.48 23.3 197.4 0.53 174.66 0.51 151.8 11.55 140.71 11.55 133.3 2.26 124.03 2.25 116.93 10.04 109.12 9.68 108.76"/><polygon class="cls-52" points="99.19 34.95 76.39 34.98 76.32 35.06 43.41 68.08 43.42 79.29 30.58 92.18 30.6 106.77 31.1 106.77 31.09 92.39 43.93 79.5 43.92 68.29 76.6 35.49 99.19 35.46 99.19 34.95"/><polygon class="cls-53" points="196.23 6.36 87.33 6.49 80.87 12.96 67.43 12.98 60.38 20.06 46.5 20.07 33.8 7.38 24.82 7.39 24.75 7.47 2.97 29.32 3.01 65.07 8.88 70.94 8.9 85.64 3.29 91.26 3.3 97.9 3.81 97.9 3.8 91.47 9.4 85.85 9.39 70.72 3.52 64.86 3.48 29.53 25.03 7.9 33.59 7.89 46.28 20.58 60.59 20.56 67.65 13.49 81.08 13.47 87.54 7 196.02 6.87 203.31 14.16 220.89 14.14 228.06 6.94 250.99 6.91 259.79 15.7 259.8 23.36 260.3 23.36 260.29 15.49 251.2 6.4 227.85 6.43 220.68 13.63 203.52 13.65 196.23 6.36"/><polygon class="cls-54" points="145.91 11.06 123.17 11.08 118.08 16.19 88.61 16.23 77.11 27.77 41.14 27.81 31.84 18.52 26.81 18.52 11.81 33.58 11.85 62.4 16.67 67.22 16.7 89.41 12.57 93.55 12.93 93.91 17.2 89.62 17.18 67.01 12.36 62.19 12.32 33.79 27.02 19.03 31.63 19.03 40.93 28.32 77.32 28.27 88.82 16.74 118.29 16.7 123.39 11.59 145.7 11.56 150.12 15.97 184.93 15.93 184.93 15.43 150.33 15.46 145.91 11.06"/><polygon class="cls-55" points="165.02 21.73 93.48 21.82 93.41 21.89 84.11 31.22 34.58 31.28 21.33 44.58 21.38 91.1 21.89 91.09 21.83 44.79 34.79 31.79 84.32 31.73 93.69 22.33 164.81 22.24 173.11 30.54 173.47 30.18 165.02 21.73"/><polygon class="cls-56" points="59.18 36.55 41.04 36.57 41.04 37.08 58.67 37.06 58.67 40.94 52.67 46.97 42.29 46.98 31.87 57.44 31.88 71.57 28.07 75.39 28.43 75.75 32.39 71.78 32.38 57.65 42.5 47.49 52.88 47.48 59.18 41.15 59.18 36.55"/><polygon class="cls-57" points="210.29 18.75 203.42 18.76 203.42 19.27 210.09 19.26 221.2 30.36 230.1 30.36 230.1 29.85 221.41 29.86 210.29 18.75"/><polygon class="cls-58" points="248.23 9.59 233.26 9.61 229.83 13.05 229.84 18.24 230.34 18.24 230.34 13.26 233.47 10.12 248.02 10.1 251.74 13.81 251.74 18.22 252.25 18.22 252.24 13.6 248.23 9.59"/><polygon class="cls-59" points="139.62 195.85 134.46 195.86 132.36 197.96 132.37 207.02 132.44 207.09 144.14 218.77 144.15 225.47 121.65 225.5 112.67 216.53 103.58 216.54 99.24 212.2 99.23 205.77 98.73 205.77 98.73 212.41 103.37 217.04 112.46 217.03 121.44 226.01 144.65 225.98 144.65 218.56 144.57 218.49 132.88 206.81 132.87 198.17 134.67 196.37 139.41 196.36 144.02 200.97 144.03 212.06 147.96 215.97 154.68 215.97 163.68 206.94 238.15 206.85 251.16 219.85 251.52 219.49 238.36 206.34 163.46 206.43 163.39 206.5 154.47 215.46 148.17 215.47 144.54 211.84 144.53 200.75 139.62 195.85"/><polygon class="cls-60" points="182.88 215.95 163.77 215.98 156.64 223.14 157 223.5 163.98 216.49 182.66 216.46 188.46 222.25 196.5 222.25 200.7 226.44 236.22 226.41 242.8 219.8 242.44 219.44 236.01 225.9 200.91 225.94 196.71 221.74 188.67 221.75 182.88 215.95"/><polygon class="cls-61" points="35.12 158.34 10.11 158.37 4.49 164 4.5 172.31 24.1 191.89 39.11 191.87 44.6 197.35 44.61 200.69 36.67 200.7 33.56 203.82 33.66 208.3 38.76 213.45 58.94 213.43 59.02 213.36 71.43 201.76 71.42 197.23 62.01 190.41 52.88 190.42 52.88 190.93 61.84 190.92 70.91 197.49 70.92 201.54 58.74 212.92 38.97 212.94 34.16 208.09 34.08 204.02 36.88 201.21 45.12 201.2 45.11 197.14 39.32 191.36 24.31 191.38 5.01 172.1 5 164.21 10.32 158.87 35.12 158.84 35.12 158.34"/><polygon class="cls-62" points="25.62 202.66 25.11 202.66 25.13 218.41 25.2 218.48 35.1 228.37 39.26 228.36 39.26 227.85 35.31 227.86 25.63 218.2 25.62 202.66"/><polygon class="cls-63" points="53.08 219.93 41.25 219.94 41.25 220.45 52.87 220.43 59.13 226.69 59.48 226.33 53.08 219.93"/><circle class="cls-64" cx="256.35" cy="43.69" r="1.97" transform="translate(-0.57 0.28) rotate(-0.07)"/><path class="cls-65" d="M258.58,43.69a2.23,2.23,0,1,1-2.23-2.23A2.23,2.23,0,0,1,258.58,43.69Zm-.51,0a1.72,1.72,0,1,0-1.72,1.72A1.72,1.72,0,0,0,258.07,43.69Z" transform="translate(-0.52 -0.03)"/><circle class="cls-66" cx="250.2" cy="58.14" r="1.98" transform="translate(-0.59 0.27) rotate(-0.07)"/><path class="cls-67" d="M252.43,58.13a2.23,2.23,0,1,1-2.23-2.23A2.23,2.23,0,0,1,252.43,58.13Zm-.51,0a1.72,1.72,0,1,0-1.72,1.72A1.72,1.72,0,0,0,251.92,58.13Z" transform="translate(-0.52 -0.03)"/><circle class="cls-68" cx="257.17" cy="85.49" r="1.98" transform="translate(-0.6 0.23) rotate(-0.06)"/><path class="cls-69" d="M259.4,85.48a2.23,2.23,0,1,1-2.23-2.23A2.23,2.23,0,0,1,259.4,85.48Zm-.51,0a1.72,1.72,0,1,0-1.72,1.73A1.73,1.73,0,0,0,258.89,85.48Z" transform="translate(-0.52 -0.03)"/><circle class="cls-70" cx="239.46" cy="79.66" r="1.98" transform="matrix(1, 0, 0, 1, -0.61, 0.26)"/><path class="cls-71" d="M241.69,79.66a2.23,2.23,0,1,1-2.23-2.23A2.23,2.23,0,0,1,241.69,79.66Zm-.51,0a1.72,1.72,0,1,0-1.72,1.73A1.72,1.72,0,0,0,241.18,79.66Z" transform="translate(-0.52 -0.03)"/><circle class="cls-72" cx="244.9" cy="85.5" r="1.98" transform="translate(-0.64 0.32) rotate(-0.08)"/><path class="cls-73" d="M247.13,85.5a2.23,2.23,0,1,1-2.23-2.23A2.23,2.23,0,0,1,247.13,85.5Zm-.51,0a1.72,1.72,0,1,0-1.72,1.72A1.72,1.72,0,0,0,246.62,85.5Z" transform="translate(-0.52 -0.03)"/><circle class="cls-74" cx="235.25" cy="139.49" r="1.98" transform="translate(-0.69 0.26) rotate(-0.07)"/><path class="cls-75" d="M237.48,139.49a2.23,2.23,0,1,1-2.23-2.23A2.23,2.23,0,0,1,237.48,139.49Zm-.51,0a1.72,1.72,0,1,0-1.72,1.73A1.72,1.72,0,0,0,237,139.49Z" transform="translate(-0.52 -0.03)"/><circle class="cls-76" cx="207.84" cy="129.02" r="1.97" transform="translate(-0.67 0.22) rotate(-0.07)"/><path class="cls-77" d="M210.07,129a2.23,2.23,0,1,1-2.23-2.23A2.23,2.23,0,0,1,210.07,129Zm-.51,0a1.72,1.72,0,1,0-1.72,1.72A1.72,1.72,0,0,0,209.56,129Z" transform="translate(-0.52 -0.03)"/><circle class="cls-78" cx="233.29" cy="155.18" r="1.98" transform="translate(-0.7 0.25) rotate(-0.07)"/><path class="cls-79" d="M235.52,155.17a2.23,2.23,0,1,1-2.23-2.23A2.23,2.23,0,0,1,235.52,155.17Zm-.51,0a1.72,1.72,0,1,0-1.72,1.73A1.72,1.72,0,0,0,235,155.18Z" transform="translate(-0.52 -0.03)"/><circle class="cls-80" cx="170.84" cy="165.28" r="1.97" transform="matrix(1, 0, 0, 1, -0.68, 0.14)"/><path class="cls-81" d="M173.07,165.28a2.23,2.23,0,1,1-2.23-2.23A2.23,2.23,0,0,1,173.07,165.28Zm-.51,0a1.72,1.72,0,1,0-1.72,1.72A1.73,1.73,0,0,0,172.57,165.28Z" transform="translate(-0.52 -0.03)"/><circle class="cls-82" cx="155.23" cy="149.44" r="1.97" transform="translate(-0.67 0.13) rotate(-0.06)"/><path class="cls-83" d="M157.46,149.44a2.23,2.23,0,1,1-2.23-2.23A2.23,2.23,0,0,1,157.46,149.44Zm-.51,0a1.72,1.72,0,1,0-1.72,1.73A1.72,1.72,0,0,0,156.95,149.44Z" transform="translate(-0.52 -0.03)"/><circle class="cls-84" cx="101.59" cy="192.04" r="1.97" transform="translate(-0.75 0.09) rotate(-0.07)"/><path class="cls-85" d="M103.82,192a2.23,2.23,0,1,1-2.23-2.23A2.23,2.23,0,0,1,103.82,192Zm-.51,0a1.72,1.72,0,1,0-1.72,1.73A1.72,1.72,0,0,0,103.32,192Z" transform="translate(-0.52 -0.03)"/><circle class="cls-86" cx="99.52" cy="206" r="1.97" transform="translate(-0.8 0.11) rotate(-0.08)"/><path class="cls-87" d="M101.75,206a2.23,2.23,0,1,1-2.23-2.23A2.23,2.23,0,0,1,101.75,206Zm-.51,0a1.72,1.72,0,1,0-1.72,1.73A1.72,1.72,0,0,0,101.24,206Z" transform="translate(-0.52 -0.03)"/><circle class="cls-88" cx="105.96" cy="225.1" r="1.97" transform="translate(-0.79 0.1) rotate(-0.07)"/><path class="cls-89" d="M108.19,225.1a2.23,2.23,0,1,1-2.23-2.23A2.23,2.23,0,0,1,108.19,225.1Zm-.51,0a1.72,1.72,0,1,0-1.72,1.73A1.73,1.73,0,0,0,107.68,225.1Z" transform="translate(-0.52 -0.03)"/><circle class="cls-90" cx="65.12" cy="226.71" r="1.97" transform="translate(-0.79 0.05) rotate(-0.07)"/><path class="cls-91" d="M67.35,226.71a2.23,2.23,0,1,1-2.23-2.23A2.23,2.23,0,0,1,67.35,226.71Zm-.51,0a1.72,1.72,0,1,0-1.72,1.72A1.72,1.72,0,0,0,66.84,226.71Z" transform="translate(-0.52 -0.03)"/><circle class="cls-92" cx="59.62" cy="226.46" r="1.98" transform="translate(-0.93 0.08) rotate(-0.1)"/><path class="cls-93" d="M61.84,226.46a2.23,2.23,0,1,1-2.23-2.23A2.23,2.23,0,0,1,61.84,226.46Zm-.51,0a1.72,1.72,0,1,0-1.72,1.72A1.72,1.72,0,0,0,61.34,226.46Z" transform="translate(-0.52 -0.03)"/><circle class="cls-94" cx="76.03" cy="206.03" r="1.98" transform="translate(-0.76 0.06) rotate(-0.07)"/><path class="cls-95" d="M78.26,206A2.23,2.23,0,1,1,76,203.8,2.23,2.23,0,0,1,78.26,206Zm-.51,0A1.72,1.72,0,1,0,76,207.75,1.72,1.72,0,0,0,77.75,206Z" transform="translate(-0.52 -0.03)"/><circle class="cls-96" cx="65.08" cy="189.53" r="1.98" transform="translate(-0.79 0.06) rotate(-0.08)"/><path class="cls-97" d="M67.3,189.53a2.23,2.23,0,1,1-2.23-2.23A2.23,2.23,0,0,1,67.3,189.53Zm-.51,0a1.72,1.72,0,1,0-1.72,1.73A1.72,1.72,0,0,0,66.8,189.53Z" transform="translate(-0.52 -0.03)"/><circle class="cls-98" cx="53.65" cy="190.77" r="1.97" transform="translate(-0.71 0.02) rotate(-0.06)"/><path class="cls-99" d="M55.88,190.77a2.23,2.23,0,1,1-2.23-2.23A2.23,2.23,0,0,1,55.88,190.77Zm-.51,0a1.72,1.72,0,1,0-1.72,1.73A1.72,1.72,0,0,0,55.37,190.77Z" transform="translate(-0.52 -0.03)"/><circle class="cls-100" cx="39.79" cy="175.4" r="1.98" transform="translate(-0.73 0.02) rotate(-0.07)"/><path class="cls-101" d="M42,175.4a2.23,2.23,0,1,1-2.23-2.23A2.23,2.23,0,0,1,42,175.4Zm-.51,0a1.72,1.72,0,1,0-1.72,1.73A1.73,1.73,0,0,0,41.51,175.4Z" transform="translate(-0.52 -0.03)"/><circle class="cls-102" cx="15.37" cy="165.54" r="1.97" transform="translate(-0.78 0) rotate(-0.09)"/><path class="cls-103" d="M17.6,165.54a2.23,2.23,0,1,1-2.23-2.23A2.23,2.23,0,0,1,17.6,165.54Zm-.51,0a1.72,1.72,0,1,0-1.72,1.73A1.72,1.72,0,0,0,17.09,165.54Z" transform="translate(-0.52 -0.03)"/><circle class="cls-104" cx="35.08" cy="159.02" r="1.98" transform="translate(-0.77 0.03) rotate(-0.09)"/><path class="cls-105" d="M37.31,159a2.23,2.23,0,1,1-2.23-2.23A2.23,2.23,0,0,1,37.31,159Zm-.51,0a1.72,1.72,0,1,0-1.72,1.72A1.72,1.72,0,0,0,36.8,159Z" transform="translate(-0.52 -0.03)"/><circle class="cls-106" cx="15.06" cy="147.4" r="1.98" transform="translate(-0.69 -0.01) rotate(-0.07)"/><path class="cls-107" d="M17.29,147.4a2.23,2.23,0,1,1-2.23-2.23A2.23,2.23,0,0,1,17.29,147.4Zm-.51,0a1.72,1.72,0,1,0-1.72,1.73A1.72,1.72,0,0,0,16.78,147.4Z" transform="translate(-0.52 -0.03)"/><circle class="cls-108" cx="50.12" cy="149.34" r="1.97" transform="translate(-0.67 0.02) rotate(-0.06)"/><path class="cls-109" d="M52.34,149.33a2.23,2.23,0,1,1-2.23-2.23A2.23,2.23,0,0,1,52.34,149.33Zm-.51,0a1.72,1.72,0,1,0-1.72,1.73A1.72,1.72,0,0,0,51.84,149.33Z" transform="translate(-0.52 -0.03)"/><circle class="cls-110" cx="46.91" cy="143.59" r="1.98"/><path class="cls-111" d="M49.66,143.62a2.23,2.23,0,1,1-2.23-2.23A2.23,2.23,0,0,1,49.66,143.62Zm-.51,0a1.72,1.72,0,1,0-1.72,1.73A1.72,1.72,0,0,0,49.15,143.62Z" transform="translate(-0.52 -0.03)"/><circle class="cls-112" cx="31.13" cy="120.68" r="1.97" transform="translate(-0.69 0.01) rotate(-0.08)"/><path class="cls-113" d="M33.36,120.68a2.23,2.23,0,1,1-2.23-2.23A2.23,2.23,0,0,1,33.36,120.68Zm-.51,0a1.72,1.72,0,1,0-1.72,1.72A1.72,1.72,0,0,0,32.85,120.68Z" transform="translate(-0.52 -0.03)"/><circle class="cls-114" cx="8.78" cy="109.76" r="1.98"/><path class="cls-115" d="M11.52,109.79a2.23,2.23,0,1,1-2.23-2.23A2.23,2.23,0,0,1,11.52,109.79Zm-.51,0a1.72,1.72,0,1,0-1.72,1.73A1.73,1.73,0,0,0,11,109.79Z" transform="translate(-0.52 -0.03)"/><circle class="cls-116" cx="22.2" cy="109.77" r="1.98" transform="translate(-0.71 0.01) rotate(-0.1)"/><path class="cls-117" d="M24.43,109.77a2.23,2.23,0,1,1-2.23-2.23A2.23,2.23,0,0,1,24.43,109.77Zm-.51,0a1.72,1.72,0,1,0-1.72,1.73A1.73,1.73,0,0,0,23.93,109.77Z" transform="translate(-0.52 -0.03)"/><circle class="cls-118" cx="10.18" cy="104.86" r="1.98" transform="matrix(1, 0, 0, 1, -0.62, -0.02)"/><path class="cls-119" d="M12.41,104.86a2.23,2.23,0,1,1-2.23-2.23A2.23,2.23,0,0,1,12.41,104.86Zm-.51,0a1.72,1.72,0,1,0-1.72,1.73A1.72,1.72,0,0,0,11.91,104.86Z" transform="translate(-0.52 -0.03)"/><circle class="cls-120" cx="3.05" cy="111.77" r="1.98" transform="translate(-0.65 -0.03) rotate(-0.07)"/><path class="cls-121" d="M5.28,111.77A2.23,2.23,0,1,1,3,109.54,2.23,2.23,0,0,1,5.28,111.77Zm-.51,0a1.72,1.72,0,1,0-1.72,1.73A1.72,1.72,0,0,0,4.77,111.77Z" transform="translate(-0.52 -0.03)"/><circle class="cls-122" cx="3.57" cy="97.55" r="1.98"/><path class="cls-123" d="M6.32,97.57a2.23,2.23,0,1,1-2.23-2.23A2.23,2.23,0,0,1,6.32,97.57Zm-.51,0A1.72,1.72,0,1,0,4.09,99.3,1.72,1.72,0,0,0,5.81,97.57Z" transform="translate(-0.52 -0.03)"/><circle class="cls-124" cx="14.1" cy="93.1" r="1.97" transform="translate(-0.63 -0.01) rotate(-0.07)"/><path class="cls-125" d="M16.33,93.1a2.23,2.23,0,1,1-2.23-2.23A2.23,2.23,0,0,1,16.33,93.1Zm-.51,0a1.72,1.72,0,1,0-1.72,1.73A1.73,1.73,0,0,0,15.82,93.1Z" transform="translate(-0.52 -0.03)"/><circle class="cls-126" cx="22.14" cy="90.86" r="1.98" transform="translate(-0.63 0) rotate(-0.07)"/><path class="cls-127" d="M24.37,90.86a2.23,2.23,0,1,1-2.23-2.23A2.23,2.23,0,0,1,24.37,90.86Zm-.51,0a1.72,1.72,0,1,0-1.72,1.72A1.72,1.72,0,0,0,23.86,90.86Z" transform="translate(-0.52 -0.03)"/><circle class="cls-128" cx="28.33" cy="75.41" r="1.97"/><path class="cls-129" d="M31.08,75.43a2.23,2.23,0,1,1-2.23-2.23A2.23,2.23,0,0,1,31.08,75.43Zm-.51,0a1.72,1.72,0,1,0-1.72,1.73A1.73,1.73,0,0,0,30.57,75.43Z" transform="translate(-0.52 -0.03)"/><circle class="cls-130" cx="41.89" cy="36.86" r="1.97" transform="translate(-0.55 0.01) rotate(-0.06)"/><path class="cls-131" d="M44.12,36.85a2.23,2.23,0,1,1-2.23-2.23A2.23,2.23,0,0,1,44.12,36.85Zm-.51,0a1.72,1.72,0,1,0-1.72,1.72A1.72,1.72,0,0,0,43.61,36.85Z" transform="translate(-0.52 -0.03)"/><circle class="cls-132" cx="36.84" cy="76.59" r="1.98" transform="translate(-0.61 0.01) rotate(-0.07)"/><path class="cls-133" d="M39.07,76.59a2.23,2.23,0,1,1-2.23-2.23A2.23,2.23,0,0,1,39.07,76.59Zm-.51,0a1.72,1.72,0,1,0-1.72,1.72A1.72,1.72,0,0,0,38.56,76.59Z" transform="translate(-0.52 -0.03)"/><circle class="cls-134" cx="25.55" cy="106.1" r="1.97" transform="translate(-0.64 0) rotate(-0.07)"/><path class="cls-135" d="M27.78,106.1a2.23,2.23,0,1,1-2.23-2.23A2.23,2.23,0,0,1,27.78,106.1Zm-.51,0a1.72,1.72,0,1,0-1.72,1.72A1.72,1.72,0,0,0,27.27,106.1Z" transform="translate(-0.52 -0.03)"/><circle class="cls-136" cx="31.33" cy="106.54" r="1.98" transform="translate(-0.62 0) rotate(-0.06)"/><path class="cls-137" d="M33.56,106.53a2.23,2.23,0,1,1-2.23-2.23A2.23,2.23,0,0,1,33.56,106.53Zm-.51,0a1.72,1.72,0,1,0-1.72,1.73A1.73,1.73,0,0,0,33.05,106.54Z" transform="translate(-0.52 -0.03)"/><circle class="cls-138" cx="41.66" cy="124.23" r="1.98" transform="translate(-0.67 0.02) rotate(-0.07)"/><path class="cls-139" d="M43.89,124.23A2.23,2.23,0,1,1,41.66,122,2.23,2.23,0,0,1,43.89,124.23Zm-.51,0A1.72,1.72,0,1,0,41.66,126,1.72,1.72,0,0,0,43.38,124.23Z" transform="translate(-0.52 -0.03)"/><circle class="cls-140" cx="41.27" cy="197.47" r="1.98"/><path class="cls-141" d="M44,197.49a2.23,2.23,0,1,1-2.23-2.23A2.23,2.23,0,0,1,44,197.49Zm-.51,0a1.72,1.72,0,1,0-1.72,1.72A1.72,1.72,0,0,0,43.51,197.5Z" transform="translate(-0.52 -0.03)"/><circle class="cls-142" cx="41.77" cy="220.31" r="1.98" transform="translate(-0.82 0.03) rotate(-0.08)"/><path class="cls-143" d="M44,220.31a2.23,2.23,0,1,1-2.23-2.23A2.23,2.23,0,0,1,44,220.31Zm-.51,0A1.72,1.72,0,1,0,41.77,222,1.72,1.72,0,0,0,43.49,220.31Z" transform="translate(-0.52 -0.03)"/><circle class="cls-144" cx="39.55" cy="228.39" r="1.98" transform="translate(-0.79 0.02) rotate(-0.07)"/><path class="cls-145" d="M41.78,228.39a2.23,2.23,0,1,1-2.23-2.23A2.23,2.23,0,0,1,41.78,228.39Zm-.51,0a1.72,1.72,0,1,0-1.72,1.73A1.72,1.72,0,0,0,41.27,228.39Z" transform="translate(-0.52 -0.03)"/><circle class="cls-146" cx="25.98" cy="203.05" r="1.74" transform="translate(-0.84 0.01) rotate(-0.09)"/><path class="cls-147" d="M27.94,203a2,2,0,1,1-2-2A2,2,0,0,1,27.94,203Zm-.45,0A1.52,1.52,0,1,0,26,204.57,1.52,1.52,0,0,0,27.49,203Z" transform="translate(-0.52 -0.03)"/><circle class="cls-148" cx="136.51" cy="216.04" r="1.98" transform="translate(-0.73 0.11) rotate(-0.06)"/><path class="cls-149" d="M138.74,216a2.23,2.23,0,1,1-2.23-2.23A2.23,2.23,0,0,1,138.74,216Zm-.51,0a1.72,1.72,0,1,0-1.72,1.72A1.72,1.72,0,0,0,138.23,216Z" transform="translate(-0.52 -0.03)"/><circle class="cls-150" cx="108.58" cy="198.71" r="1.97" transform="translate(-0.75 0.1) rotate(-0.07)"/><path class="cls-151" d="M110.81,198.7a2.23,2.23,0,1,1-2.23-2.23A2.23,2.23,0,0,1,110.81,198.7Zm-.51,0a1.72,1.72,0,1,0-1.72,1.73A1.72,1.72,0,0,0,110.3,198.7Z" transform="translate(-0.52 -0.03)"/><circle class="cls-152" cx="91.47" cy="186.26" r="1.97" transform="translate(-0.74 0.08) rotate(-0.07)"/><path class="cls-153" d="M93.7,186.26A2.23,2.23,0,1,1,91.47,184,2.23,2.23,0,0,1,93.7,186.26Zm-.51,0A1.72,1.72,0,1,0,91.47,188,1.73,1.73,0,0,0,93.19,186.26Z" transform="translate(-0.52 -0.03)"/><circle class="cls-154" cx="71.57" cy="175.62" r="1.98" transform="matrix(1, 0, 0, 1, -0.69, 0.04)"/><path class="cls-155" d="M73.79,175.62a2.23,2.23,0,1,1-2.23-2.23A2.23,2.23,0,0,1,73.79,175.62Zm-.51,0a1.72,1.72,0,1,0-1.72,1.73A1.73,1.73,0,0,0,73.29,175.62Z" transform="translate(-0.52 -0.03)"/><circle class="cls-156" cx="75.75" cy="158.13" r="1.97" transform="translate(-0.68 0.05) rotate(-0.06)"/><path class="cls-157" d="M78,158.13a2.23,2.23,0,1,1-2.23-2.23A2.23,2.23,0,0,1,78,158.13Zm-.51,0a1.72,1.72,0,1,0-1.72,1.73A1.72,1.72,0,0,0,77.47,158.13Z" transform="translate(-0.52 -0.03)"/><circle class="cls-158" cx="155.19" cy="118.74" r="1.98" transform="translate(-0.68 0.19) rotate(-0.08)"/><path class="cls-159" d="M157.42,118.74a2.23,2.23,0,1,1-2.23-2.23A2.23,2.23,0,0,1,157.42,118.74Zm-.51,0a1.72,1.72,0,1,0-1.72,1.72A1.72,1.72,0,0,0,156.91,118.74Z" transform="translate(-0.52 -0.03)"/><circle class="cls-160" cx="170.21" cy="116.04" r="1.97" transform="translate(-0.63 0.14) rotate(-0.06)"/><path class="cls-161" d="M172.44,116a2.23,2.23,0,1,1-2.23-2.23A2.23,2.23,0,0,1,172.44,116Zm-.51,0a1.72,1.72,0,1,0-1.72,1.73A1.72,1.72,0,0,0,171.94,116Z" transform="translate(-0.52 -0.03)"/><circle class="cls-162" cx="135.09" cy="118.06" r="1.97" transform="translate(-0.66 0.13) rotate(-0.07)"/><path class="cls-163" d="M137.32,118.06a2.23,2.23,0,1,1-2.23-2.23A2.23,2.23,0,0,1,137.32,118.06Zm-.51,0a1.72,1.72,0,1,0-1.72,1.73A1.72,1.72,0,0,0,136.81,118.06Z" transform="translate(-0.52 -0.03)"/><circle class="cls-164" cx="134.65" cy="105.45" r="1.97" transform="translate(-0.64 0.13) rotate(-0.07)"/><path class="cls-165" d="M136.88,105.45a2.23,2.23,0,1,1-2.23-2.23A2.23,2.23,0,0,1,136.88,105.45Zm-.51,0a1.72,1.72,0,1,0-1.72,1.73A1.72,1.72,0,0,0,136.37,105.45Z" transform="translate(-0.52 -0.03)"/><circle class="cls-166" cx="165.68" cy="157.75" r="1.97" transform="translate(-0.7 0.17) rotate(-0.07)"/><path class="cls-167" d="M167.91,157.75a2.23,2.23,0,1,1-2.23-2.23A2.23,2.23,0,0,1,167.91,157.75Zm-.51,0a1.72,1.72,0,1,0-1.72,1.73A1.72,1.72,0,0,0,167.4,157.75Z" transform="translate(-0.52 -0.03)"/><circle class="cls-168" cx="156.98" cy="223.12" r="1.98"/><path class="cls-169" d="M159.72,223.15a2.23,2.23,0,1,1-2.23-2.23A2.23,2.23,0,0,1,159.72,223.15Zm-.51,0a1.72,1.72,0,1,0-1.72,1.72A1.72,1.72,0,0,0,159.22,223.15Z" transform="translate(-0.52 -0.03)"/><circle class="cls-170" cx="154.13" cy="208.32" r="1.97" transform="translate(-0.77 0.15) rotate(-0.07)"/><path class="cls-171" d="M156.36,208.32a2.23,2.23,0,1,1-2.23-2.23A2.23,2.23,0,0,1,156.36,208.32Zm-.51,0a1.72,1.72,0,1,0-1.72,1.73A1.72,1.72,0,0,0,155.86,208.32Z" transform="translate(-0.52 -0.03)"/><circle class="cls-172" cx="175.89" cy="158.2" r="1.97"/><path class="cls-173" d="M178.63,158.23A2.23,2.23,0,1,1,176.4,156,2.23,2.23,0,0,1,178.63,158.23Zm-.51,0a1.72,1.72,0,1,0-1.72,1.73A1.73,1.73,0,0,0,178.13,158.23Z" transform="translate(-0.52 -0.03)"/><circle class="cls-174" cx="252.34" cy="181.36" r="1.98" transform="translate(-0.81 0.38) rotate(-0.09)"/><path class="cls-175" d="M254.57,181.36a2.23,2.23,0,1,1-2.23-2.23A2.23,2.23,0,0,1,254.57,181.36Zm-.51,0a1.72,1.72,0,1,0-1.72,1.73A1.72,1.72,0,0,0,254.07,181.36Z" transform="translate(-0.52 -0.03)"/><circle class="cls-176" cx="247.15" cy="208.59" r="1.98" transform="matrix(1, 0, 0, 1, -0.73, 0.22)"/><path class="cls-177" d="M249.38,208.59a2.23,2.23,0,1,1-2.23-2.23A2.23,2.23,0,0,1,249.38,208.59Zm-.51,0a1.72,1.72,0,1,0-1.72,1.72A1.73,1.73,0,0,0,248.88,208.59Z" transform="translate(-0.52 -0.03)"/><circle class="cls-178" cx="251.62" cy="219.54" r="1.98" transform="matrix(1, 0, 0, 1, -0.82, 0.32)"/><path class="cls-179" d="M253.85,219.53a2.23,2.23,0,1,1-2.23-2.23A2.23,2.23,0,0,1,253.85,219.53Zm-.51,0a1.72,1.72,0,1,0-1.72,1.73A1.73,1.73,0,0,0,253.35,219.53Z" transform="translate(-0.52 -0.03)"/><circle class="cls-180" cx="286.81" cy="230.8" r="1.98" transform="translate(-0.84 0.37) rotate(-0.08)"/><path class="cls-181" d="M289,230.8a2.23,2.23,0,1,1-2.23-2.23A2.23,2.23,0,0,1,289,230.8Zm-.51,0a1.72,1.72,0,1,0-1.72,1.73A1.72,1.72,0,0,0,288.53,230.8Z" transform="translate(-0.52 -0.03)"/><circle class="cls-182" cx="242.96" cy="219.8" r="1.97" transform="translate(-0.78 0.27) rotate(-0.07)"/><path class="cls-183" d="M245.19,219.8a2.23,2.23,0,1,1-2.23-2.23A2.23,2.23,0,0,1,245.19,219.8Zm-.51,0a1.72,1.72,0,1,0-1.72,1.72A1.72,1.72,0,0,0,244.68,219.8Z" transform="translate(-0.52 -0.03)"/><ellipse class="cls-184" cx="258.6" cy="64.29" rx="1.97" ry="1.98" transform="translate(-0.58 0.23) rotate(-0.06)"/><path class="cls-185" d="M260.83,64.29a2.23,2.23,0,1,1-2.23-2.23A2.23,2.23,0,0,1,260.83,64.29Zm-.51,0A1.72,1.72,0,1,0,258.6,66,1.73,1.73,0,0,0,260.32,64.29Z" transform="translate(-0.52 -0.03)"/><circle class="cls-186" cx="207.52" cy="57.19" r="1.98" transform="translate(-0.57 0.18) rotate(-0.06)"/><path class="cls-187" d="M209.75,57.19A2.23,2.23,0,1,1,207.51,55,2.23,2.23,0,0,1,209.75,57.19Zm-.51,0a1.72,1.72,0,1,0-1.72,1.73A1.73,1.73,0,0,0,209.24,57.19Z" transform="translate(-0.52 -0.03)"/><circle class="cls-188" cx="210.74" cy="44.67" r="1.98" transform="translate(-0.58 0.26) rotate(-0.08)"/><path class="cls-189" d="M213,44.67a2.23,2.23,0,1,1-2.23-2.23A2.23,2.23,0,0,1,213,44.67Zm-.51,0a1.72,1.72,0,1,0-1.72,1.73A1.72,1.72,0,0,0,212.46,44.67Z" transform="translate(-0.52 -0.03)"/><circle class="cls-190" cx="203.83" cy="19.29" r="1.98" transform="translate(-0.54 0.26) rotate(-0.08)"/><path class="cls-191" d="M206.06,19.28a2.23,2.23,0,1,1-2.23-2.23A2.23,2.23,0,0,1,206.06,19.28Zm-.51,0A1.72,1.72,0,1,0,203.83,21,1.72,1.72,0,0,0,205.55,19.29Z" transform="translate(-0.52 -0.03)"/><circle class="cls-192" cx="193.42" cy="13.23" r="1.98" transform="matrix(1, 0, 0, 1, -0.53, 0.17)"/><path class="cls-193" d="M195.65,13.23A2.23,2.23,0,1,1,193.41,11,2.24,2.24,0,0,1,195.65,13.23Zm-.51,0A1.72,1.72,0,1,0,193.42,15,1.72,1.72,0,0,0,195.14,13.23Z" transform="translate(-0.52 -0.03)"/><circle class="cls-194" cx="185.46" cy="28.34" r="1.97" transform="translate(-0.55 0.19) rotate(-0.07)"/><path class="cls-195" d="M187.69,28.34a2.23,2.23,0,1,1-2.23-2.23A2.23,2.23,0,0,1,187.69,28.34Zm-.51,0a1.72,1.72,0,1,0-1.72,1.73A1.72,1.72,0,0,0,187.18,28.34Z" transform="translate(-0.52 -0.03)"/><circle class="cls-196" cx="173.67" cy="30.33" r="1.97" transform="translate(-0.55 0.15) rotate(-0.06)"/><path class="cls-197" d="M175.89,30.33a2.23,2.23,0,1,1-2.23-2.23A2.23,2.23,0,0,1,175.89,30.33Zm-.51,0a1.72,1.72,0,1,0-1.72,1.72A1.73,1.73,0,0,0,175.39,30.33Z" transform="translate(-0.52 -0.03)"/><circle class="cls-198" cx="159.74" cy="51.53" r="1.97" transform="translate(-0.61 0.26) rotate(-0.1)"/><path class="cls-199" d="M162,51.53a2.23,2.23,0,1,1-2.23-2.23A2.23,2.23,0,0,1,162,51.53Zm-.51,0a1.72,1.72,0,1,0-1.72,1.72A1.72,1.72,0,0,0,161.47,51.53Z" transform="translate(-0.52 -0.03)"/><circle class="cls-200" cx="144.4" cy="47.76" r="1.97" transform="translate(-0.57 0.15) rotate(-0.07)"/><path class="cls-201" d="M146.62,47.75a2.23,2.23,0,1,1-2.23-2.23A2.23,2.23,0,0,1,146.62,47.75Zm-.51,0a1.72,1.72,0,1,0-1.72,1.73A1.72,1.72,0,0,0,146.12,47.75Z" transform="translate(-0.52 -0.03)"/><circle class="cls-202" cx="118.82" cy="61.88" r="1.98"/><path class="cls-203" d="M121.56,61.91a2.23,2.23,0,1,1-2.23-2.23A2.23,2.23,0,0,1,121.56,61.91Zm-.51,0a1.72,1.72,0,1,0-1.72,1.72A1.72,1.72,0,0,0,121.05,61.91Z" transform="translate(-0.52 -0.03)"/><circle class="cls-204" cx="110.56" cy="37.02" r="1.98" transform="translate(-0.57 0.13) rotate(-0.08)"/><path class="cls-205" d="M112.79,37a2.23,2.23,0,1,1-2.23-2.23A2.23,2.23,0,0,1,112.79,37Zm-.51,0a1.72,1.72,0,1,0-1.72,1.72A1.72,1.72,0,0,0,112.28,37Z" transform="translate(-0.52 -0.03)"/><circle class="cls-206" cx="105.93" cy="33.96" r="1.98" transform="translate(-0.56 0.1) rotate(-0.07)"/><path class="cls-207" d="M108.16,34a2.23,2.23,0,1,1-2.23-2.23A2.23,2.23,0,0,1,108.16,34Zm-.51,0a1.72,1.72,0,1,0-1.72,1.72A1.72,1.72,0,0,0,107.65,34Z" transform="translate(-0.52 -0.03)"/><circle class="cls-208" cx="99.44" cy="35.27" r="1.97" transform="translate(-0.57 0.11) rotate(-0.08)"/><path class="cls-209" d="M101.67,35.27A2.23,2.23,0,1,1,99.44,33,2.23,2.23,0,0,1,101.67,35.27Zm-.51,0A1.72,1.72,0,1,0,99.45,37,1.72,1.72,0,0,0,101.16,35.27Z" transform="translate(-0.52 -0.03)"/><circle class="cls-210" cx="95.26" cy="50.3" r="1.97" transform="translate(-0.57 0.07) rotate(-0.06)"/><path class="cls-211" d="M97.49,50.29a2.23,2.23,0,1,1-2.23-2.23A2.23,2.23,0,0,1,97.49,50.29Zm-.51,0A1.72,1.72,0,1,0,95.26,52,1.73,1.73,0,0,0,97,50.29Z" transform="translate(-0.52 -0.03)"/><circle class="cls-212" cx="149.98" cy="26.66" r="1.98" transform="translate(-0.55 0.15) rotate(-0.07)"/><path class="cls-213" d="M152.21,26.66A2.23,2.23,0,1,1,150,24.43,2.23,2.23,0,0,1,152.21,26.66Zm-.51,0A1.72,1.72,0,1,0,150,28.38,1.73,1.73,0,0,0,151.71,26.66Z" transform="translate(-0.52 -0.03)"/><circle class="cls-214" cx="159.59" cy="28.63" r="1.98" transform="translate(-0.55 0.13) rotate(-0.06)"/><path class="cls-215" d="M161.82,28.62a2.23,2.23,0,1,1-2.23-2.23A2.23,2.23,0,0,1,161.82,28.62Zm-.51,0a1.72,1.72,0,1,0-1.72,1.73A1.73,1.73,0,0,0,161.32,28.62Z" transform="translate(-0.52 -0.03)"/><circle class="cls-216" cx="184.66" cy="15.78" r="1.98"/><path class="cls-217" d="M187.41,15.81a2.23,2.23,0,1,1-2.23-2.23A2.23,2.23,0,0,1,187.41,15.81Zm-.51,0a1.72,1.72,0,1,0-1.72,1.73A1.72,1.72,0,0,0,186.9,15.81Z" transform="translate(-0.52 -0.03)"/><circle class="cls-218" cx="230.37" cy="30.27" r="1.97" transform="translate(-0.56 0.29) rotate(-0.08)"/><path class="cls-219" d="M232.59,30.26A2.23,2.23,0,1,1,230.36,28,2.23,2.23,0,0,1,232.59,30.26Zm-.51,0A1.72,1.72,0,1,0,230.37,32,1.72,1.72,0,0,0,232.09,30.26Z" transform="translate(-0.52 -0.03)"/><circle class="cls-220" cx="230.35" cy="18.27" r="1.98" transform="translate(-0.54 0.25) rotate(-0.07)"/><path class="cls-221" d="M232.58,18.27A2.23,2.23,0,1,1,230.35,16,2.23,2.23,0,0,1,232.58,18.27Zm-.51,0A1.72,1.72,0,1,0,230.35,20,1.72,1.72,0,0,0,232.07,18.27Z" transform="translate(-0.52 -0.03)"/><circle class="cls-222" cx="252.43" cy="18.25" r="1.98" transform="translate(-0.55 0.38) rotate(-0.09)"/><path class="cls-223" d="M254.66,18.24A2.23,2.23,0,1,1,252.43,16,2.23,2.23,0,0,1,254.66,18.24Zm-.51,0A1.72,1.72,0,1,0,252.43,20,1.72,1.72,0,0,0,254.15,18.24Z" transform="translate(-0.52 -0.03)"/><circle class="cls-224" cx="260.31" cy="22.97" r="1.98" transform="translate(-0.54 0.29) rotate(-0.07)"/><path class="cls-225" d="M262.54,23a2.23,2.23,0,1,1-2.23-2.23A2.23,2.23,0,0,1,262.54,23ZM262,23a1.72,1.72,0,1,0-1.72,1.72A1.73,1.73,0,0,0,262,23Z" transform="translate(-0.52 -0.03)"/><circle class="cls-226" cx="246.67" cy="2.29" r="1.98" transform="translate(-0.52 0.22) rotate(-0.06)"/><path class="cls-227" d="M248.9,2.29A2.23,2.23,0,1,1,246.67.06,2.23,2.23,0,0,1,248.9,2.29Zm-.51,0A1.72,1.72,0,1,0,246.67,4,1.72,1.72,0,0,0,248.39,2.29Z" transform="translate(-0.52 -0.03)"/><circle class="cls-228" cx="264.75" cy="6.06" r="1.98" transform="matrix(1, 0, 0, 1, -0.52, 0.24)"/><path class="cls-229" d="M267,6.06a2.23,2.23,0,1,1-2.23-2.23A2.23,2.23,0,0,1,267,6.06Zm-.51,0a1.72,1.72,0,1,0-1.72,1.72A1.73,1.73,0,0,0,266.47,6.06Z" transform="translate(-0.52 -0.03)"/><circle class="cls-230" cx="271.75" cy="2.26" r="1.97" transform="translate(-0.52 0.24) rotate(-0.06)"/><path class="cls-231" d="M274,2.26A2.23,2.23,0,1,1,271.74,0,2.23,2.23,0,0,1,274,2.26Zm-.51,0A1.72,1.72,0,1,0,271.75,4,1.73,1.73,0,0,0,273.47,2.26Z" transform="translate(-0.52 -0.03)"/><circle class="cls-232" cx="278.15" cy="18.22" r="1.97" transform="translate(-0.54 0.36) rotate(-0.08)"/><path class="cls-233" d="M280.38,18.21A2.23,2.23,0,1,1,278.15,16,2.23,2.23,0,0,1,280.38,18.21Zm-.51,0a1.72,1.72,0,1,0-1.72,1.72A1.72,1.72,0,0,0,279.87,18.22Z" transform="translate(-0.52 -0.03)"/><circle class="cls-234" cx="268.35" cy="44.18" r="1.98" transform="translate(-0.56 0.24) rotate(-0.06)"/><path class="cls-235" d="M270.58,44.18a2.23,2.23,0,1,1-2.23-2.23A2.23,2.23,0,0,1,270.58,44.18Zm-.51,0a1.72,1.72,0,1,0-1.72,1.72A1.72,1.72,0,0,0,270.08,44.18Z" transform="translate(-0.52 -0.03)"/><circle class="cls-236" cx="290.42" cy="45.02" r="1.98" transform="translate(-0.58 0.38) rotate(-0.08)"/><path class="cls-237" d="M292.65,45a2.23,2.23,0,1,1-2.23-2.23A2.23,2.23,0,0,1,292.65,45Zm-.51,0a1.72,1.72,0,1,0-1.72,1.72A1.73,1.73,0,0,0,292.14,45Z" transform="translate(-0.52 -0.03)"/><circle class="cls-238" cx="315.65" cy="19.22" r="1.98" transform="translate(-0.54 0.35) rotate(-0.07)"/><path class="cls-239" d="M317.87,19.21A2.23,2.23,0,1,1,315.64,17,2.23,2.23,0,0,1,317.87,19.21Zm-.51,0a1.72,1.72,0,1,0-1.72,1.72A1.72,1.72,0,0,0,317.37,19.21Z" transform="translate(-0.52 -0.03)"/><circle class="cls-240" cx="345.7" cy="17.46" r="1.97" transform="matrix(1, 0, 0, 1, -0.53, 0.32)"/><path class="cls-241" d="M347.93,17.46a2.23,2.23,0,1,1-2.23-2.23A2.23,2.23,0,0,1,347.93,17.46Zm-.51,0a1.72,1.72,0,1,0-1.72,1.72A1.72,1.72,0,0,0,347.42,17.46Z" transform="translate(-0.52 -0.03)"/><circle class="cls-242" cx="339.34" cy="27.96" r="1.97"/><path class="cls-243" d="M342.08,28a2.23,2.23,0,1,1-2.23-2.23A2.23,2.23,0,0,1,342.08,28Zm-.51,0a1.72,1.72,0,1,0-1.72,1.72A1.72,1.72,0,0,0,341.57,28Z" transform="translate(-0.52 -0.03)"/><circle class="cls-244" cx="336.67" cy="23.53" r="1.98" transform="translate(-0.55 0.45) rotate(-0.08)"/><path class="cls-245" d="M338.9,23.53a2.23,2.23,0,1,1-2.23-2.23A2.23,2.23,0,0,1,338.9,23.53Zm-.51,0a1.72,1.72,0,1,0-1.72,1.73A1.73,1.73,0,0,0,338.4,23.53Z" transform="translate(-0.52 -0.03)"/><circle class="cls-246" cx="333.33" cy="33.28" r="1.97" transform="translate(-0.56 0.44) rotate(-0.08)"/><path class="cls-247" d="M335.56,33.28A2.23,2.23,0,1,1,333.33,31,2.23,2.23,0,0,1,335.56,33.28Zm-.51,0A1.72,1.72,0,1,0,333.34,35,1.72,1.72,0,0,0,335.05,33.28Z" transform="translate(-0.52 -0.03)"/><circle class="cls-248" cx="348.72" cy="36.73" r="1.98" transform="translate(-0.56 0.39) rotate(-0.07)"/><path class="cls-249" d="M350.95,36.72a2.23,2.23,0,1,1-2.23-2.23A2.23,2.23,0,0,1,350.95,36.72Zm-.51,0a1.72,1.72,0,1,0-1.72,1.72A1.72,1.72,0,0,0,350.44,36.72Z" transform="translate(-0.52 -0.03)"/><circle class="cls-250" cx="331.99" cy="44.34" r="1.98" transform="translate(-0.57 0.37) rotate(-0.07)"/><path class="cls-251" d="M334.21,44.33A2.23,2.23,0,1,1,332,42.1,2.23,2.23,0,0,1,334.21,44.33Zm-.51,0A1.72,1.72,0,1,0,332,46.06,1.72,1.72,0,0,0,333.71,44.33Z" transform="translate(-0.52 -0.03)"/><circle class="cls-252" cx="307.03" cy="57.61" r="1.97" transform="translate(-0.57 0.28) rotate(-0.06)"/><path class="cls-253" d="M309.26,57.61A2.23,2.23,0,1,1,307,55.38,2.23,2.23,0,0,1,309.26,57.61Zm-.51,0A1.72,1.72,0,1,0,307,59.33,1.72,1.72,0,0,0,308.75,57.61Z" transform="translate(-0.52 -0.03)"/><circle class="cls-254" cx="313.8" cy="90.97" r="1.98" transform="matrix(1, 0, 0, 1, -0.61, 0.29)"/><path class="cls-255" d="M316,91a2.23,2.23,0,1,1-2.23-2.23A2.23,2.23,0,0,1,316,91Zm-.51,0a1.72,1.72,0,1,0-1.72,1.73A1.73,1.73,0,0,0,315.52,91Z" transform="translate(-0.52 -0.03)"/><circle class="cls-256" cx="320.94" cy="85.41" r="1.97" transform="translate(-0.64 0.42) rotate(-0.08)"/><path class="cls-257" d="M323.17,85.41a2.23,2.23,0,1,1-2.23-2.23A2.23,2.23,0,0,1,323.17,85.41Zm-.51,0a1.72,1.72,0,1,0-1.72,1.73A1.72,1.72,0,0,0,322.66,85.41Z" transform="translate(-0.52 -0.03)"/><circle class="cls-258" cx="332.04" cy="89.36" r="1.98" transform="translate(-0.61 0.3) rotate(-0.06)"/><path class="cls-259" d="M334.27,89.36A2.23,2.23,0,1,1,332,87.13,2.23,2.23,0,0,1,334.27,89.36Zm-.51,0A1.72,1.72,0,1,0,332,91.08,1.73,1.73,0,0,0,333.76,89.36Z" transform="translate(-0.52 -0.03)"/><circle class="cls-260" cx="328.09" cy="102.82" r="1.97" transform="translate(-0.66 0.43) rotate(-0.08)"/><path class="cls-261" d="M330.32,102.82a2.23,2.23,0,1,1-2.23-2.23A2.23,2.23,0,0,1,330.32,102.82Zm-.51,0a1.72,1.72,0,1,0-1.72,1.73A1.72,1.72,0,0,0,329.82,102.82Z" transform="translate(-0.52 -0.03)"/><circle class="cls-262" cx="334.28" cy="103.23" r="1.98" transform="matrix(1, 0, 0, 1, -0.62, 0.31)"/><path class="cls-263" d="M336.51,103.22a2.23,2.23,0,1,1-2.23-2.23A2.23,2.23,0,0,1,336.51,103.22Zm-.51,0a1.72,1.72,0,1,0-1.72,1.73A1.72,1.72,0,0,0,336,103.22Z" transform="translate(-0.52 -0.03)"/><circle class="cls-264" cx="344.42" cy="108.52" r="1.98" transform="translate(-0.67 0.45) rotate(-0.08)"/><path class="cls-265" d="M346.65,108.51a2.23,2.23,0,1,1-2.23-2.23A2.23,2.23,0,0,1,346.65,108.51Zm-.51,0a1.72,1.72,0,1,0-1.72,1.73A1.72,1.72,0,0,0,346.14,108.51Z" transform="translate(-0.52 -0.03)"/><circle class="cls-266" cx="348.82" cy="112.37" r="1.98" transform="translate(-0.67 0.46) rotate(-0.08)"/><path class="cls-267" d="M351,112.37a2.23,2.23,0,1,1-2.23-2.23A2.23,2.23,0,0,1,351,112.37Zm-.51,0a1.72,1.72,0,1,0-1.72,1.73A1.73,1.73,0,0,0,350.54,112.37Z" transform="translate(-0.52 -0.03)"/><circle class="cls-268" cx="347.62" cy="127.78" r="1.97" transform="translate(-0.69 0.46) rotate(-0.08)"/><path class="cls-269" d="M349.85,127.78a2.23,2.23,0,1,1-2.23-2.23A2.23,2.23,0,0,1,349.85,127.78Zm-.51,0a1.72,1.72,0,1,0-1.72,1.72A1.72,1.72,0,0,0,349.34,127.78Z" transform="translate(-0.52 -0.03)"/><circle class="cls-270" cx="283.91" cy="119.9" r="1.98" transform="translate(-0.66 0.32) rotate(-0.07)"/><path class="cls-271" d="M286.14,119.89a2.23,2.23,0,1,1-2.23-2.23A2.23,2.23,0,0,1,286.14,119.89Zm-.51,0a1.72,1.72,0,1,0-1.72,1.73A1.72,1.72,0,0,0,285.63,119.9Z" transform="translate(-0.52 -0.03)"/><circle class="cls-272" cx="269.4" cy="114.44" r="1.98" transform="translate(-0.65 0.29) rotate(-0.07)"/><path class="cls-273" d="M271.63,114.44a2.23,2.23,0,1,1-2.23-2.23A2.23,2.23,0,0,1,271.63,114.44Zm-.51,0a1.72,1.72,0,1,0-1.72,1.73A1.72,1.72,0,0,0,271.12,114.44Z" transform="translate(-0.52 -0.03)"/><circle class="cls-274" cx="276.13" cy="71.51" r="1.97" transform="matrix(1, 0, 0, 1, -0.59, 0.25)"/><path class="cls-275" d="M278.36,71.51a2.23,2.23,0,1,1-2.23-2.23A2.23,2.23,0,0,1,278.36,71.51Zm-.51,0a1.72,1.72,0,1,0-1.72,1.73A1.72,1.72,0,0,0,277.85,71.51Z" transform="translate(-0.52 -0.03)"/><circle class="cls-276" cx="299.35" cy="146.02" r="1.97" transform="translate(-0.69 0.33) rotate(-0.07)"/><path class="cls-277" d="M301.58,146a2.23,2.23,0,1,1-2.23-2.23A2.23,2.23,0,0,1,301.58,146Zm-.51,0a1.72,1.72,0,1,0-1.72,1.73A1.73,1.73,0,0,0,301.07,146Z" transform="translate(-0.52 -0.03)"/><circle class="cls-278" cx="293.66" cy="163.19" r="1.97" transform="translate(-0.71 0.33) rotate(-0.07)"/><path class="cls-279" d="M295.89,163.19a2.23,2.23,0,1,1-2.23-2.23A2.23,2.23,0,0,1,295.89,163.19Zm-.51,0a1.72,1.72,0,1,0-1.72,1.72A1.73,1.73,0,0,0,295.38,163.19Z" transform="translate(-0.52 -0.03)"/><circle class="cls-280" cx="320.36" cy="162.18" r="1.98" transform="translate(-0.74 0.42) rotate(-0.08)"/><path class="cls-281" d="M322.59,162.18a2.23,2.23,0,1,1-2.23-2.23A2.23,2.23,0,0,1,322.59,162.18Zm-.51,0a1.72,1.72,0,1,0-1.72,1.72A1.72,1.72,0,0,0,322.08,162.18Z" transform="translate(-0.52 -0.03)"/><circle class="cls-282" cx="299.38" cy="170.28" r="1.98" transform="matrix(1, 0, 0, 1, -0.72, 0.33)"/><path class="cls-283" d="M301.61,170.27a2.23,2.23,0,1,1-2.23-2.23A2.23,2.23,0,0,1,301.61,170.27Zm-.51,0a1.72,1.72,0,1,0-1.72,1.73A1.72,1.72,0,0,0,301.1,170.27Z" transform="translate(-0.52 -0.03)"/><circle class="cls-284" cx="265.61" cy="188.22" r="1.97" transform="translate(-0.78 0.34) rotate(-0.08)"/><path class="cls-285" d="M267.83,188.22A2.23,2.23,0,1,1,265.6,186,2.23,2.23,0,0,1,267.83,188.22Zm-.51,0a1.72,1.72,0,1,0-1.72,1.73A1.72,1.72,0,0,0,267.33,188.22Z" transform="translate(-0.52 -0.03)"/><circle class="cls-286" cx="288.75" cy="196.87" r="1.98" transform="matrix(1, 0, 0, 1, -0.71, 0.26)"/><path class="cls-287" d="M291,196.87a2.23,2.23,0,1,1-2.23-2.23A2.23,2.23,0,0,1,291,196.87Zm-.51,0a1.72,1.72,0,1,0-1.72,1.73A1.72,1.72,0,0,0,290.47,196.87Z" transform="translate(-0.52 -0.03)"/><circle class="cls-288" cx="335.01" cy="200.42" r="1.98" transform="translate(-0.84 0.51) rotate(-0.09)"/><path class="cls-289" d="M337.24,200.42a2.23,2.23,0,1,1-2.23-2.23A2.23,2.23,0,0,1,337.24,200.42Zm-.51,0a1.72,1.72,0,1,0-1.72,1.73A1.72,1.72,0,0,0,336.73,200.42Z" transform="translate(-0.52 -0.03)"/><circle class="cls-290" cx="351.73" cy="199.65" r="1.98" transform="matrix(1, 0, 0, 1, -0.72, 0.32)"/><path class="cls-291" d="M354,199.65a2.23,2.23,0,1,1-2.23-2.23A2.23,2.23,0,0,1,354,199.65Zm-.51,0a1.72,1.72,0,1,0-1.72,1.73A1.73,1.73,0,0,0,353.45,199.65Z" transform="translate(-0.52 -0.03)"/><circle class="cls-292" cx="359.43" cy="198.39" r="1.98"/><path class="cls-293" d="M362.17,198.41a2.23,2.23,0,1,1-2.23-2.23A2.23,2.23,0,0,1,362.17,198.41Zm-.51,0a1.72,1.72,0,1,0-1.72,1.72A1.73,1.73,0,0,0,361.66,198.41Z" transform="translate(-0.52 -0.03)"/><circle class="cls-294" cx="362.82" cy="204.6" r="1.97" transform="matrix(1, 0, 0, 1, -0.72, 0.34)"/><path class="cls-295" d="M365,204.6a2.23,2.23,0,1,1-2.23-2.23A2.23,2.23,0,0,1,365,204.6Zm-.51,0a1.72,1.72,0,1,0-1.72,1.73A1.73,1.73,0,0,0,364.54,204.6Z" transform="translate(-0.52 -0.03)"/><circle class="cls-296" cx="364.31" cy="211.27" r="1.98" transform="translate(-0.73 0.34) rotate(-0.06)"/><path class="cls-297" d="M366.54,211.27a2.23,2.23,0,1,1-2.23-2.23A2.23,2.23,0,0,1,366.54,211.27Zm-.51,0a1.72,1.72,0,1,0-1.72,1.73A1.72,1.72,0,0,0,366,211.27Z" transform="translate(-0.52 -0.03)"/><circle class="cls-298" cx="334.94" cy="147.66" r="1.98" transform="matrix(1, 0, 0, 1, -0.7, 0.38)"/><path class="cls-299" d="M337.17,147.66a2.23,2.23,0,1,1-2.23-2.23A2.23,2.23,0,0,1,337.17,147.66Zm-.51,0a1.72,1.72,0,1,0-1.72,1.72A1.72,1.72,0,0,0,336.67,147.66Z" transform="translate(-0.52 -0.03)"/><circle class="cls-300" cx="357.77" cy="80.01" r="1.97" transform="translate(-0.61 0.4) rotate(-0.07)"/><path class="cls-301" d="M360,80a2.23,2.23,0,1,1-2.23-2.23A2.23,2.23,0,0,1,360,80Zm-.51,0a1.72,1.72,0,1,0-1.72,1.73A1.72,1.72,0,0,0,359.49,80Z" transform="translate(-0.52 -0.03)"/></svg>