<svg id="图层_1" data-name="图层 1" xmlns="http://www.w3.org/2000/svg" viewBox="0 0 1024 1024"><defs><style>.cls-1{fill-rule:evenodd;}</style></defs><title>用户</title><path class="cls-1" d="M512,1024C229.23,1024,0,794.77,0,512S229.23,0,512,0s512,229.23,512,512-229.23,512-512,512Zm0-928C282.25,96,96,282.25,96,512,96,619.44,137.08,717,203.95,790.86c60.25-29.14,38.13-4.88,117-37.34,80.66-33.16,99.77-44.73,99.77-44.73l.77-76.44s-30.22-22.94-39.6-94.86c-18.91,5.42-25.15-22-26.27-39.51-1-16.88-10.94-69.62,12.12-64.86-4.72-35.21-8.1-67-6.45-83.79C367,290.29,424.34,228.6,512.61,224.1c103.83,4.49,145,66.16,150.72,125.2,1.69,16.83-2,48.61-6.74,83.76,23.08-4.7,13,48,11.92,64.83-1,17.48-7.4,44.84-26.26,39.42C632.83,609.24,602.61,632,602.61,632l.71,76s19.1,10.83,99.77,44c78.83,32.44,56.7,9.62,116.94,38.83C886.91,717,928,619.44,928,512,928,282.25,741.75,96,512,96Z"/></svg>